Coordinates
version=1
nRows=21
nColumns=12
inDegrees=yes

Units are S.I. units (second, meters, Newtons, ...)
Angles are in degrees

endheader
time	SC_y	SC_z	SC_x	AC_y	AC_z	AC_x	GH_y	GH_z	GH_yy	EL_x	PS_y
       0.0              -20.18          32.51          57.04          57.95         -15.37         -14.51         -45.15           61.7         -178.0          54.33          97.47
   0.02845              -20.18          32.51          57.04          57.95         -15.37         -14.51         -45.13           61.7         -177.9          54.34          97.47
    0.0569              -20.19          32.51          57.05          57.95         -15.36         -14.51          -45.1          61.69         -177.9          54.35          97.47
   0.08536              -20.19           32.5          57.05          57.95         -15.36         -14.51         -45.08          61.67         -177.8          54.35          97.48
    0.1138               -20.2           32.5          57.05          57.95         -15.36          -14.5         -45.05          61.66         -177.8          54.36          97.48
    0.1423              -20.21           32.5          57.05          57.95         -15.35          -14.5         -45.02          61.65         -177.7          54.37          97.48
    0.1707              -20.21           32.5          57.05          57.95         -15.35          -14.5         -44.98          61.64         -177.7          54.38          97.49
    0.1992              -20.22          32.49          57.05          57.95         -15.34         -14.49         -44.95          61.62         -177.6          54.39          97.49
    0.2276              -20.23          32.49          57.05          57.95         -15.34         -14.49         -44.91          61.61         -177.5           54.4           97.5
    0.2561              -20.23          32.49          57.05          57.95         -15.33         -14.48         -44.87          61.59         -177.5          54.41           97.5
    0.2845              -20.24          32.48          57.05          57.94         -15.32         -14.48         -44.83          61.57         -177.4          54.42          97.51
     0.313              -20.25          32.48          57.05          57.94         -15.32         -14.47         -44.78          61.56         -177.3          54.43          97.51
    0.3414              -20.26          32.47          57.05          57.94         -15.31         -14.47         -44.74          61.54         -177.2          54.45          97.52
    0.3699              -20.27          32.47          57.05          57.94          -15.3         -14.46         -44.68          61.51         -177.1          54.46          97.53
    0.3983              -20.28          32.46          57.05          57.94         -15.29         -14.46         -44.62          61.49         -177.0          54.48          97.53
    0.4268              -20.29          32.46          57.05          57.94         -15.28         -14.45         -44.56          61.47         -176.9          54.49          97.54
    0.4552              -20.31          32.45          57.05          57.94         -15.27         -14.44         -44.49          61.44         -176.8          54.51          97.55
    0.4837              -20.32          32.45          57.05          57.94         -15.26         -14.43         -44.42          61.41         -176.7          54.53          97.56
    0.5121              -20.34          32.44          57.05          57.94         -15.25         -14.42         -44.34          61.38         -176.6          54.56          97.57
    0.5406              -20.36          32.43          57.05          57.94         -15.23         -14.41         -44.25          61.34         -176.4          54.58          97.58
     0.569              -20.37          32.42          57.05          57.93         -15.22          -14.4         -44.15           61.3         -176.2          54.61          97.59
